<?xml version="1.0" standalone="no"?>
<!DOCTYPE svg PUBLIC "-//W3C//DTD SVG 20010904//EN"
 "http://www.w3.org/TR/2001/REC-SVG-20010904/DTD/svg10.dtd">
<svg version="1.0" xmlns="http://www.w3.org/2000/svg"
 width="1024.000000pt" height="1024.000000pt" viewBox="0 0 1024.000000 1024.000000"
 preserveAspectRatio="xMidYMid meet">

<g transform="translate(0.000000,1024.000000) scale(0.100000,-0.100000)"
fill="#000000" stroke="none">
<path d="M0 5120 l0 -5120 5120 0 5120 0 0 5120 0 5120 -5120 0 -5120 0 0
-5120z m5635 3790 c22 -11 48 -32 57 -48 9 -15 35 -113 58 -217 78 -356 71
-346 258 -399 118 -34 299 -101 428 -160 56 -25 115 -49 131 -52 49 -10 106
24 288 171 94 75 183 144 200 152 40 21 108 19 144 -4 16 -10 209 -193 429
-407 422 -408 431 -418 419 -493 -3 -19 -59 -125 -123 -235 -65 -111 -122
-218 -128 -239 -11 -41 -16 -29 117 -279 68 -128 150 -314 181 -408 18 -54 54
-105 86 -122 10 -5 134 -28 276 -51 276 -43 311 -55 339 -109 22 -43 22 -1227
0 -1270 -24 -47 -63 -66 -195 -94 -69 -15 -132 -29 -141 -32 -11 -3 -27 18
-57 78 -22 46 -72 122 -111 169 -68 84 -70 89 -80 165 -33 231 -171 452 -361
574 -87 55 -84 49 -115 200 -105 509 -353 959 -736 1337 -296 292 -622 494
-1008 624 -420 142 -959 175 -1411 88 -182 -35 -453 -118 -577 -176 l-58 -27
-376 -6 -377 -5 -78 -40 c-91 -47 -148 -109 -185 -202 -22 -55 -23 -75 -28
-373 l-6 -315 -48 -70 c-66 -95 -186 -342 -242 -499 -187 -520 -211 -1085 -69
-1602 64 -236 178 -491 298 -668 l65 -95 3 -353 c3 -341 4 -355 26 -410 32
-81 107 -160 190 -200 l67 -33 430 -5 430 -6 71 -31 c97 -42 298 -108 424
-138 403 -96 861 -83 1293 35 l140 39 31 -24 c43 -31 108 -63 191 -93 102 -36
294 -43 379 -13 73 26 97 26 144 2 53 -26 214 -78 302 -96 103 -22 271 -30
355 -17 38 6 71 10 73 7 2 -2 -47 -56 -110 -121 -123 -127 -175 -161 -231
-148 -17 3 -120 66 -229 140 -115 78 -212 136 -232 139 -29 6 -65 -6 -228 -78
-106 -47 -265 -108 -352 -136 -153 -49 -187 -66 -207 -103 -5 -9 -29 -123 -54
-254 -31 -161 -52 -247 -66 -271 -41 -66 -22 -64 -613 -61 l-535 3 -34 33
c-39 38 -39 37 -98 307 -23 105 -46 201 -51 215 -21 57 -56 78 -207 126 -181
57 -311 109 -443 175 -149 75 -145 76 -397 -94 -113 -76 -217 -139 -236 -143
-69 -13 -98 12 -541 450 -257 253 -428 430 -439 452 -26 55 -15 103 43 192
139 213 212 345 212 384 0 27 -20 77 -69 175 -90 178 -147 319 -210 520 -70
218 -51 204 -364 280 -139 35 -256 69 -271 79 -57 42 -56 30 -56 676 0 545 1
596 18 628 31 62 59 73 293 109 118 18 236 37 263 43 72 16 109 54 147 151 58
151 150 350 225 488 45 82 74 147 74 165 0 21 -41 96 -136 248 -147 235 -162
272 -131 333 15 28 108 121 567 569 281 274 281 274 358 274 40 0 60 -7 108
-38 64 -42 215 -162 279 -222 104 -98 150 -109 255 -59 138 66 436 173 540
194 108 22 120 44 185 339 29 134 62 257 71 272 10 15 36 35 59 45 37 17 76
19 514 19 453 0 477 -1 516 -20z m273 -1501 c44 -11 74 -39 439 -403 342 -341
393 -396 402 -433 7 -26 10 -141 9 -315 l-3 -273 -135 -6 c-226 -11 -397 -55
-582 -152 -241 -125 -417 -333 -473 -559 -16 -63 -22 -72 -109 -160 -172 -175
-245 -354 -234 -572 5 -88 4 -93 -28 -151 -18 -33 -47 -103 -65 -155 -32 -91
-33 -102 -34 -250 0 -136 3 -164 23 -230 47 -148 117 -257 242 -380 82 -80 88
-89 105 -152 9 -37 35 -102 56 -144 21 -42 39 -78 39 -80 0 -2 -524 -4 -1164
-4 l-1163 0 -34 23 c-18 12 -44 38 -56 56 l-23 34 0 2089 c0 2259 -3 2125 53
2176 57 53 5 51 1395 52 930 0 1306 -3 1340 -11z m764 -1655 c59 -30 58 -24
58 -599 l0 -525 -67 0 c-125 0 -141 6 -220 85 l-73 71 0 149 1 150 32 20 c40
26 57 59 57 116 0 52 -30 106 -70 126 -14 7 -47 13 -74 13 -87 0 -146 -56
-146 -137 0 -42 33 -123 50 -123 6 0 10 -60 10 -175 0 -132 4 -183 14 -203 8
-15 56 -68 108 -118 l93 -92 110 -6 c61 -4 124 -8 140 -9 l30 -2 3 -141 3
-141 -53 -6 c-29 -4 -124 -7 -211 -7 l-157 0 -48 42 c-26 23 -95 89 -154 147
-104 102 -107 106 -114 158 -19 158 -175 204 -268 79 -16 -21 -21 -42 -21 -93
0 -62 2 -66 37 -99 33 -30 44 -34 92 -34 66 0 69 -2 264 -194 l142 -141 245 3
245 4 0 -527 c0 -370 -3 -540 -12 -573 -15 -61 -99 -146 -183 -188 -52 -25
-71 -29 -140 -28 -139 1 -247 53 -311 149 -35 52 -39 55 -79 55 -54 0 -166 55
-232 114 -84 76 -133 197 -133 333 l0 63 -98 63 c-53 35 -114 83 -135 108 -75
87 -127 229 -127 345 0 145 39 244 135 343 l65 67 -22 55 c-18 44 -22 75 -22
164 -1 108 0 112 38 190 30 61 57 98 115 155 80 79 111 95 211 107 38 4 50 10
54 27 13 49 9 56 -39 56 l-45 0 0 45 c0 125 86 269 214 359 92 64 152 86 237
86 68 0 74 2 110 35 100 90 252 125 341 79z m492 6 c213 -47 391 -194 430
-352 6 -26 10 -28 61 -28 225 0 395 -256 330 -500 -8 -30 -13 -55 -12 -55 128
-81 206 -160 252 -252 41 -84 55 -146 55 -248 0 -153 -41 -265 -132 -356 l-48
-48 21 -48 c14 -31 23 -77 27 -129 4 -76 2 -86 -24 -134 -44 -81 -116 -128
-229 -149 -27 -5 -39 -12 -37 -22 12 -48 13 -167 3 -221 -19 -96 -65 -172
-161 -269 -68 -69 -102 -94 -170 -127 -96 -47 -220 -82 -295 -82 -108 0 -218
46 -268 112 -42 55 -48 98 -45 298 l3 185 116 3 116 3 52 -41 c49 -39 51 -42
51 -91 0 -36 6 -60 22 -81 23 -33 88 -67 127 -68 39 0 101 42 122 82 54 106
-13 208 -138 208 -43 0 -58 7 -128 55 l-79 55 -127 0 -127 0 -7 63 c-4 34 -5
82 -3 107 l3 45 350 5 c193 3 351 7 353 8 2 1 28 25 58 54 89 84 123 138 135
210 6 35 15 65 20 66 21 8 71 56 84 83 57 109 -69 261 -178 215 -50 -20 -89
-77 -95 -135 -3 -40 0 -55 21 -87 24 -36 25 -44 18 -106 -8 -59 -14 -73 -52
-118 -24 -29 -50 -55 -59 -58 -8 -4 -160 -6 -337 -4 l-323 3 -2 417 c-2 229
-3 469 -3 532 -1 63 1 134 3 158 l4 42 98 0 c113 0 170 16 217 62 33 32 53 94
53 161 0 24 8 39 36 62 93 79 49 258 -69 280 -48 9 -109 -16 -139 -58 -62 -88
-24 -227 74 -268 28 -11 30 -15 25 -52 -3 -22 -15 -49 -27 -61 -19 -19 -30
-21 -142 -18 -67 1 -123 4 -124 5 -2 1 -4 136 -5 299 -2 290 -1 297 21 332 22
37 44 53 89 67 37 11 37 11 135 -11z"/>
<path d="M4745 8912 c-3 -3 -32 -5 -65 -4 -35 0 -58 -3 -55 -8 3 -6 -1 -7 -9
-4 -22 8 -79 -54 -73 -78 3 -10 2 -16 -3 -13 -11 7 -34 -121 -24 -136 4 -7 3
-10 -3 -6 -12 7 -56 -186 -57 -250 -1 -22 -4 -39 -8 -36 -8 4 -10 -1 -12 -29
-1 -7 -19 -30 -41 -50 -28 -27 -35 -38 -23 -38 9 0 19 -4 23 -9 3 -6 -6 -6
-25 -1 -16 5 -42 5 -57 0 -16 -5 -101 -32 -191 -60 -89 -28 -160 -55 -157 -60
3 -4 -5 -6 -17 -2 -16 4 -19 2 -13 -8 6 -10 4 -12 -8 -7 -9 3 -22 0 -29 -7 -7
-7 -19 -11 -26 -8 -6 2 -12 -1 -12 -8 0 -6 -4 -9 -9 -6 -5 4 -42 -9 -82 -27
-41 -19 -67 -36 -58 -39 8 -3 -13 -3 -46 0 -33 2 -68 9 -79 14 -13 7 -21 6
-27 -3 -8 -13 -12 -5 -8 17 3 15 -55 62 -70 57 -9 -4 -13 -2 -8 2 4 5 -4 21
-18 35 -20 21 -34 27 -58 24 -18 -1 -26 0 -19 3 6 2 12 10 12 17 0 19 -78 78
-92 70 -7 -4 -8 -3 -4 4 4 7 -11 23 -36 39 -24 15 -45 31 -48 34 -3 3 -19 14
-37 23 -37 18 -118 23 -93 5 12 -8 9 -9 -11 -5 -30 7 -114 -48 -102 -67 3 -7
3 -9 -2 -5 -11 10 -37 -11 -29 -23 3 -5 1 -8 -4 -7 -6 2 -58 -44 -116 -101
-100 -98 -121 -122 -94 -105 7 4 8 3 4 -5 -4 -6 -11 -9 -16 -6 -13 8 -111 -86
-103 -99 3 -6 3 -8 -1 -4 -11 9 -57 -33 -49 -45 3 -6 1 -7 -4 -4 -6 4 -19 -3
-29 -14 -17 -19 -17 -20 2 -13 10 4 16 4 12 0 -3 -4 -13 -9 -22 -10 -22 -3
-165 -135 -162 -149 1 -7 1 -8 -2 -3 -2 4 -31 -18 -63 -50 -32 -31 -55 -62
-52 -67 3 -6 1 -7 -4 -4 -14 9 -46 -40 -39 -59 3 -8 1 -14 -4 -14 -13 0 -13
-30 1 -68 6 -18 16 -29 22 -25 5 3 7 1 4 -5 -6 -8 37 -85 70 -127 4 -5 17 -27
27 -47 11 -20 24 -34 28 -32 5 3 7 1 6 -4 -4 -12 92 -172 102 -172 5 0 8 -31
7 -70 0 -38 -3 -67 -7 -65 -15 9 -212 -381 -212 -422 0 -13 -4 -21 -8 -18 -11
7 -43 -83 -34 -96 4 -7 3 -9 -4 -5 -6 4 -17 -15 -27 -46 -21 -63 -56 -113 -98
-138 -31 -19 -38 -21 -184 -41 -46 -6 -81 -14 -79 -18 2 -3 -17 -7 -42 -8 -90
-4 -206 -23 -241 -41 -19 -9 -44 -30 -55 -45 -21 -28 -21 -40 -24 -625 -2
-553 -1 -600 15 -631 24 -46 60 -65 179 -90 54 -12 114 -26 132 -32 17 -6 42
-8 55 -5 12 3 15 3 7 -1 -14 -6 135 -51 188 -57 12 -1 23 -7 23 -12 1 -17 21
-34 32 -27 6 3 7 1 3 -6 -4 -6 -3 -17 2 -24 5 -7 31 -80 57 -164 28 -87 53
-149 58 -146 6 3 7 1 3 -6 -10 -16 44 -152 57 -144 6 4 7 1 2 -6 -8 -14 33
-111 47 -111 5 0 6 -4 3 -10 -9 -15 34 -92 47 -84 6 4 8 3 4 -4 -9 -14 14 -63
27 -55 6 3 7 2 4 -4 -3 -5 2 -33 13 -61 17 -45 18 -56 6 -94 -7 -24 -36 -81
-64 -126 -29 -46 -49 -89 -46 -94 4 -6 3 -8 -2 -5 -6 3 -23 -18 -39 -46 -16
-29 -36 -60 -45 -69 -27 -29 -70 -120 -63 -132 4 -6 6 -24 4 -39 -2 -24 14
-45 110 -142 62 -63 115 -113 118 -112 3 1 7 -2 9 -8 1 -5 28 -36 59 -67 41
-42 59 -54 66 -45 6 8 7 7 4 -4 -6 -19 65 -94 78 -82 4 5 5 3 2 -3 -8 -13 86
-107 97 -97 4 5 6 1 4 -7 -2 -9 3 -14 12 -12 8 2 12 0 7 -4 -10 -10 52 -74 72
-74 8 0 11 -3 8 -7 -9 -8 32 -53 49 -53 7 0 16 -5 20 -12 5 -7 2 -8 -7 -3 -8
4 4 -11 25 -33 22 -23 43 -39 48 -36 5 3 7 0 6 -8 -2 -7 3 -12 10 -10 8 1 11
-2 8 -7 -8 -13 53 -63 66 -55 7 4 8 2 4 -4 -9 -15 33 -32 78 -32 36 0 96 26
96 41 0 5 3 8 8 7 11 -4 112 62 112 73 0 5 3 8 8 7 12 -4 71 35 66 44 -3 4 2
8 10 8 9 0 45 20 81 45 37 25 77 48 91 51 13 3 24 10 24 14 0 5 14 5 31 0 16
-5 37 -6 46 -3 10 4 14 2 9 -5 -5 -9 15 -22 37 -22 4 0 16 -9 27 -20 18 -18
39 -25 63 -21 5 1 6 -3 2 -9 -6 -9 10 -14 42 -13 7 1 10 -4 7 -9 -4 -6 2 -8
15 -3 14 4 21 2 19 -5 -3 -13 90 -52 104 -44 4 3 8 0 8 -6 0 -7 7 -9 16 -6 10
4 13 2 8 -6 -5 -7 0 -9 14 -6 14 4 20 2 15 -5 -4 -6 0 -8 10 -4 10 4 17 1 17
-5 0 -6 3 -8 7 -5 3 4 11 3 17 -2 12 -9 205 -71 223 -71 6 0 27 -18 46 -39 35
-39 51 -77 63 -153 4 -21 9 -36 13 -34 3 2 7 -14 9 -37 3 -45 46 -253 63 -305
6 -18 15 -30 20 -27 5 4 9 0 9 -8 0 -8 15 -22 33 -30 28 -13 104 -16 541 -16
280 0 520 2 532 5 13 3 21 10 18 15 -3 5 2 9 10 9 9 0 23 12 33 27 22 33 56
197 42 202 -6 1 -4 8 4 15 8 6 24 67 37 141 12 72 29 145 38 163 18 40 72 78
124 87 21 4 36 11 33 15 -3 4 6 8 19 8 34 0 216 62 216 73 0 6 4 8 9 5 8 -5
34 5 181 71 144 66 174 75 220 69 25 -4 51 -7 57 -8 7 -1 11 -3 8 -6 -5 -5 39
-42 49 -42 4 0 16 -9 28 -20 12 -10 24 -17 28 -15 5 3 11 -2 14 -11 4 -9 13
-14 22 -10 8 3 13 2 10 -3 -7 -11 72 -63 85 -56 5 4 8 1 7 -5 -2 -7 28 -32 67
-56 52 -33 79 -44 110 -44 45 0 89 25 79 43 -4 7 -4 9 1 5 10 -10 96 72 88 85
-3 6 -2 7 4 4 13 -8 87 68 79 82 -4 6 -1 9 7 5 8 -3 18 0 23 7 5 9 -2 10 -32
4 -65 -12 -264 -15 -264 -3 0 6 -15 8 -35 6 -19 -2 -35 0 -35 5 0 5 -15 7 -32
3 -18 -3 -28 -2 -21 2 7 5 -10 13 -44 21 -48 11 -112 31 -208 66 -16 5 -17 5
-5 -4 10 -7 11 -11 3 -11 -7 0 -17 9 -23 20 -16 30 -67 34 -134 10 -33 -11
-72 -20 -88 -20 -19 0 -27 -4 -22 -11 4 -7 0 -9 -13 -5 -29 9 -98 10 -113 1
-9 -5 -11 -4 -6 3 4 7 2 12 -3 12 -6 0 -11 -6 -11 -12 0 -10 -2 -10 -8 -1 -4
7 -28 16 -52 22 -76 17 -171 50 -205 71 -17 11 -36 16 -40 12 -5 -4 -5 -2 -2
4 4 6 -8 19 -26 28 -31 17 -36 16 -184 -22 -84 -22 -150 -41 -148 -44 3 -3
-11 -5 -30 -6 -20 -1 -86 -9 -148 -19 -174 -28 -605 -24 -782 7 -71 12 -147
23 -167 23 -22 1 -33 4 -25 9 9 6 8 8 -4 8 -8 0 -21 -6 -28 -13 -10 -10 -11
-9 -6 6 7 16 -6 21 -52 20 -7 -1 -13 2 -13 6 0 4 -21 13 -47 20 -61 16 -102
30 -130 43 -12 6 -29 8 -37 5 -9 -4 -19 0 -23 8 -11 18 -111 55 -130 48 -10
-4 -14 -2 -9 5 3 6 2 13 -2 16 -5 3 -205 6 -446 6 -263 1 -434 5 -431 11 4 5
-3 9 -14 9 -11 0 -23 5 -26 11 -4 6 -14 8 -22 5 -8 -3 -12 -2 -9 3 3 5 -6 17
-20 26 -18 11 -24 13 -19 4 11 -18 -76 78 -94 105 -8 12 -19 24 -24 27 -5 3
-8 8 -6 10 4 7 -24 109 -30 109 -3 0 -5 153 -3 340 l3 340 -37 55 c-27 40 -40
52 -46 43 -5 -9 -7 -4 -6 12 2 15 -2 24 -9 23 -7 -2 -10 3 -7 10 2 7 -3 22
-13 33 -10 11 -19 24 -20 29 -4 22 -80 155 -84 150 -3 -3 -5 5 -5 18 1 12 -4
21 -11 20 -7 -2 -10 3 -7 11 3 8 -2 28 -10 45 -9 17 -28 63 -42 103 -15 40
-31 76 -36 79 -5 3 -9 9 -8 13 1 3 -1 24 -5 46 -5 30 -10 38 -23 33 -13 -4
-14 -2 -4 4 11 8 8 29 -12 109 -109 436 -99 915 29 1363 20 68 33 126 31 129
-3 2 2 11 10 20 9 8 13 23 11 34 -3 10 -1 16 4 12 9 -5 11 0 13 29 1 6 3 14 6
17 14 14 40 84 40 106 0 14 4 23 9 20 4 -3 13 6 20 20 14 32 14 37 -1 29 -7
-4 -6 0 3 7 9 7 31 42 49 78 18 35 43 81 56 102 13 21 22 38 18 38 -3 0 1 6 9
14 7 8 28 37 46 64 l32 50 -3 300 c-2 165 0 296 3 290 3 -5 9 8 12 30 19 116
142 251 258 282 24 7 51 15 59 17 8 3 41 4 74 3 46 -1 56 1 50 12 -6 10 -5 11
7 1 17 -14 560 -19 573 -5 4 4 11 7 14 7 17 1 152 59 152 65 0 4 6 8 13 7 34
-1 48 4 41 15 -4 6 -3 8 3 5 11 -7 91 16 133 37 14 7 30 11 37 9 7 -2 22 1 35
8 13 7 32 12 43 11 17 -2 17 -1 5 8 -12 8 -9 10 15 9 17 -1 100 10 185 25 85
14 202 31 260 36 125 11 459 18 462 9 2 -3 37 -9 78 -12 49 -4 70 -3 60 3 -13
8 -12 10 3 10 9 0 17 -5 17 -11 0 -6 9 -9 20 -6 11 3 18 1 14 -4 -3 -5 7 -9
23 -9 15 0 81 -11 145 -24 65 -12 121 -19 125 -15 5 5 15 4 23 -1 13 -9 13
-10 0 -11 -8 -1 -1 -5 15 -9 88 -25 163 -48 187 -58 15 -6 35 -9 45 -5 12 5
14 3 8 -7 -6 -10 -2 -11 19 -6 18 4 25 3 21 -4 -8 -12 42 -33 57 -24 6 4 8 2
4 -4 -3 -6 9 -15 31 -22 21 -7 43 -17 50 -22 7 -5 18 -6 24 -2 8 4 9 3 5 -4
-7 -11 -3 -14 27 -16 6 -1 21 -9 32 -19 11 -10 31 -21 45 -24 14 -3 28 -11 32
-17 5 -8 8 -7 8 2 0 6 4 12 10 12 5 0 7 -6 4 -14 -4 -9 11 -24 43 -42 26 -15
80 -49 119 -75 49 -33 74 -45 81 -38 7 7 13 7 17 1 3 -6 1 -14 -4 -17 -7 -4 7
-20 32 -38 24 -17 55 -41 70 -55 14 -13 31 -21 36 -18 6 4 14 1 18 -5 5 -8 2
-10 -7 -4 -8 4 15 -20 51 -53 39 -36 70 -58 80 -55 11 4 12 3 2 -4 -10 -7 -8
-14 9 -29 12 -10 23 -18 25 -16 2 1 3 0 2 -2 -6 -10 66 -75 76 -69 6 3 8 3 4
-2 -10 -11 51 -87 64 -79 7 4 8 2 4 -5 -4 -6 0 -14 8 -17 9 -3 14 -10 11 -14
-3 -4 2 -13 10 -20 8 -7 38 -44 66 -82 37 -49 55 -66 62 -59 6 6 15 11 21 11
5 0 2 -6 -8 -13 -17 -12 -15 -17 25 -77 38 -60 74 -106 54 -71 -5 10 -4 12 4
7 6 -4 9 -12 6 -17 -9 -13 45 -100 57 -92 7 3 8 1 4 -5 -9 -14 65 -163 77
-155 6 3 7 1 3 -6 -10 -16 3 -53 16 -45 6 4 8 2 5 -4 -6 -9 39 -147 62 -192 4
-8 18 -54 31 -102 14 -48 27 -85 31 -83 3 3 4 -7 1 -22 -4 -19 -2 -24 8 -18 9
5 11 4 6 -4 -9 -13 33 -220 48 -239 16 -22 109 -72 119 -65 6 3 7 2 4 -3 -3
-5 5 -19 19 -29 13 -11 32 -27 41 -35 29 -24 111 -129 134 -170 15 -26 27 -37
38 -33 13 4 14 3 1 -5 -12 -9 -11 -14 5 -32 11 -12 19 -24 17 -26 -4 -5 29
-97 37 -104 4 -3 7 -14 7 -25 1 -11 7 -44 13 -74 6 -29 11 -68 11 -86 0 -22 8
-39 28 -56 15 -13 30 -23 34 -21 5 1 7 -1 6 -6 -4 -13 54 -92 63 -86 5 3 8 2
7 -3 -4 -13 74 -163 86 -164 43 -5 229 33 213 43 -7 4 2 5 18 2 24 -4 37 1 70
29 l40 35 3 606 c2 520 0 611 -13 641 -8 21 -19 34 -25 30 -6 -4 -9 -1 -8 7 2
7 -5 12 -14 12 -10 -1 -15 2 -12 7 6 10 -13 15 -111 30 -122 19 -177 28 -305
49 -69 12 -135 22 -147 24 -13 1 -26 6 -30 11 -5 4 -2 5 5 1 19 -11 14 2 -13
38 -14 18 -30 48 -37 67 -6 19 -20 40 -30 47 -10 7 -18 18 -18 24 0 7 7 3 15
-8 8 -10 15 -16 15 -12 0 17 -25 64 -44 81 -12 10 -15 16 -8 12 7 -4 12 0 12
10 0 8 -7 18 -15 21 -8 4 -13 10 -10 14 6 10 -32 102 -46 111 -5 3 -11 15 -14
28 -7 37 -88 180 -98 174 -6 -3 -7 -1 -3 5 7 12 -51 132 -64 132 -4 0 -6 14
-4 32 2 17 -1 37 -7 45 -7 7 -9 16 -5 20 3 3 6 1 6 -5 0 -7 5 -12 10 -12 6 0
10 5 10 10 0 9 43 86 143 259 14 25 23 49 20 54 -3 6 -1 7 5 3 12 -7 16 5 13
33 -2 7 2 10 7 7 11 -7 50 61 53 94 5 57 0 82 -17 76 -11 -4 -15 -2 -11 8 8
19 -31 68 -46 59 -7 -3 -9 -2 -4 2 9 11 -81 104 -97 101 -6 -2 -7 -1 -2 2 5 2
-46 58 -114 123 -67 66 -127 116 -133 112 -5 -3 -7 -2 -4 4 8 13 -157 176
-168 166 -4 -4 -5 -3 -2 3 3 6 -10 26 -29 45 -19 19 -36 32 -38 29 -1 -3 -17
12 -35 32 -18 21 -38 35 -44 31 -5 -3 -7 -2 -4 4 8 12 -79 96 -92 89 -5 -3
-11 1 -15 9 -4 11 -20 15 -55 15 -45 0 -56 -5 -142 -71 -119 -90 -140 -110
-132 -122 3 -6 1 -7 -5 -4 -5 4 -47 -22 -91 -57 -45 -36 -90 -68 -101 -71 -11
-4 -20 -10 -20 -13 0 -4 -19 -6 -42 -4 -32 2 -39 1 -28 -7 8 -6 10 -11 5 -11
-6 0 -19 9 -29 21 -11 13 -25 19 -37 16 -10 -3 -17 -2 -14 3 9 15 -279 135
-297 124 -7 -4 -8 -2 -4 5 5 8 0 10 -18 7 -15 -3 -24 -1 -21 4 8 12 -31 22
-57 15 -17 -5 -19 -4 -9 3 11 8 5 13 -25 21 -21 6 -61 17 -89 25 -27 9 -59 13
-71 10 -12 -3 -25 -1 -28 4 -4 6 3 8 16 6 22 -4 22 -4 -1 8 -26 14 -76 60 -74
68 4 16 -22 88 -30 83 -6 -4 -7 -1 -3 6 9 14 -34 214 -46 219 -4 2 -6 8 -3 13
3 5 0 36 -7 69 -8 42 -17 60 -28 60 -13 0 -13 2 0 10 12 8 12 13 -3 44 -9 20
-23 36 -31 36 -8 0 -16 6 -18 13 -5 14 -210 25 -323 17 -38 -3 -89 -2 -112 1
-24 3 -45 4 -48 1 -7 -7 -245 -8 -245 -1 0 3 -19 3 -42 0 -24 -4 -60 -4 -80 0
-21 3 -40 4 -43 1z m879 -20 c3 -5 -1 -9 -9 -9 -8 0 -12 4 -9 9 3 4 7 8 9 8 2
0 6 -4 9 -8z m-468 -144 c4 -7 4 -10 -1 -6 -4 4 -15 2 -24 -5 -14 -11 -14 -10
-2 6 16 20 18 21 27 5z m-449 -23 c0 -8 -4 -12 -9 -9 -5 3 -6 10 -3 15 9 13
12 11 12 -6z m673 0 c7 -9 8 -15 2 -15 -5 0 -12 7 -16 15 -3 8 -4 15 -2 15 2
0 9 -7 16 -15z m323 0 c-3 -9 -8 -14 -10 -11 -3 3 -2 9 2 15 9 16 15 13 8 -4z
m-723 -29 c0 -2 -8 -10 -17 -17 -16 -13 -17 -12 -4 4 13 16 21 21 21 13z m419
-29 c8 -10 7 -14 -2 -14 -8 0 -14 6 -14 14 0 7 1 13 2 13 2 0 8 -6 14 -13z
m235 -13 c3 -8 2 -12 -4 -9 -6 3 -10 10 -10 16 0 14 7 11 14 -7z m-927 -9 c0
-8 -4 -12 -9 -9 -5 3 -6 10 -3 15 9 13 12 11 12 -6z m106 -2 c-9 -3 -10 -10
-4 -22 8 -13 5 -17 -12 -18 -14 -2 -17 1 -9 6 7 4 10 15 6 24 -4 12 -1 17 12
16 11 0 14 -3 7 -6z m747 -3 c0 -5 -2 -10 -4 -10 -3 0 -8 5 -11 10 -3 6 -1 10
4 10 6 0 11 -4 11 -10z m-332 -55 c-3 -3 -9 2 -12 12 -6 14 -5 15 5 6 7 -7 10
-15 7 -18z m166 6 c3 -5 -1 -11 -9 -14 -9 -4 -12 -1 -8 9 6 16 10 17 17 5z
m93 -13 c-3 -8 -6 -5 -6 6 -1 11 2 17 5 13 3 -3 4 -12 1 -19z m167 7 c3 -8 1
-15 -4 -15 -6 0 -10 7 -10 15 0 8 2 15 4 15 2 0 6 -7 10 -15z m-849 -23 c-3
-3 -11 0 -18 7 -9 10 -8 11 6 5 10 -3 15 -9 12 -12z m725 3 c0 -12 -19 -12
-23 0 -4 9 -1 12 9 8 7 -3 14 -7 14 -8z m-473 -1 c-3 -3 -12 -4 -19 -1 -8 3
-5 6 6 6 11 1 17 -2 13 -5z m274 -17 c-10 -9 -11 -8 -5 6 3 10 9 15 12 12 3
-3 0 -11 -7 -18z m124 13 c4 -6 -1 -7 -11 -3 -13 5 -15 3 -9 -7 5 -9 4 -11 -4
-6 -6 4 -9 12 -6 17 8 12 22 12 30 -1z m138 -25 c-3 -9 -8 -14 -10 -11 -3 3
-2 9 2 15 9 16 15 13 8 -4z m-868 -5 c3 -5 -1 -10 -10 -10 -9 0 -13 5 -10 10
3 6 8 10 10 10 2 0 7 -4 10 -10z m752 -5 c0 -8 -4 -12 -9 -9 -5 3 -6 10 -3 15
9 13 12 11 12 -6z m-607 1 c0 -3 -4 -8 -10 -11 -5 -3 -10 -1 -10 4 0 6 5 11
10 11 6 0 10 -2 10 -4z m490 0 c0 -2 -8 -10 -17 -17 -16 -13 -17 -12 -4 4 13
16 21 21 21 13z m-273 -12 c-3 -3 -12 -4 -19 -1 -8 3 -5 6 6 6 11 1 17 -2 13
-5z m-186 -47 c-10 -9 -11 -8 -5 6 3 10 9 15 12 12 3 -3 0 -11 -7 -18z m394
-25 c-3 -3 -11 0 -18 7 -9 10 -8 11 6 5 10 -3 15 -9 12 -12z m99 0 c3 -5 -1
-9 -9 -9 -8 0 -12 4 -9 9 3 4 7 8 9 8 2 0 6 -4 9 -8z m274 -17 c-3 -3 -9 2
-12 12 -6 14 -5 15 5 6 7 -7 10 -15 7 -18z m-1081 -10 c-4 -8 -12 -15 -19 -14
-10 0 -10 2 0 6 6 2 12 12 12 21 0 8 3 13 6 9 4 -3 4 -13 1 -22z m900 10 c0
-8 -4 -12 -9 -9 -5 3 -6 10 -3 15 9 13 12 11 12 -6z m-947 -30 c-7 -9 -15 -13
-19 -10 -3 3 1 10 9 15 21 14 24 12 10 -5z m745 5 c3 -6 -1 -7 -9 -4 -18 7
-21 14 -7 14 6 0 13 -4 16 -10z m-405 -24 c0 -2 -7 -7 -16 -10 -8 -3 -12 -2
-9 4 6 10 25 14 25 6z m320 -17 c0 -6 -4 -7 -10 -4 -5 3 -10 11 -10 16 0 6 5
7 10 4 6 -3 10 -11 10 -16z m-95 -9 c-3 -5 -12 -10 -18 -10 -7 0 -6 4 3 10 19
12 23 12 15 0z m-385 -60 c0 -5 -5 -10 -11 -10 -5 0 -7 5 -4 10 3 6 8 10 11
10 2 0 4 -4 4 -10z m288 -40 c-7 -10 -14 -17 -17 -15 -4 4 18 35 25 35 2 0 -1
-9 -8 -20z m332 16 c0 -2 -7 -7 -16 -10 -8 -3 -12 -2 -9 4 6 10 25 14 25 6z
m-520 -46 c6 -11 8 -20 6 -20 -3 0 -10 9 -16 20 -6 11 -8 20 -6 20 3 0 10 -9
16 -20z m300 16 c0 -2 -8 -10 -17 -17 -16 -13 -17 -12 -4 4 13 16 21 21 21 13z
m1990 -16 c0 -5 -5 -10 -11 -10 -5 0 -7 5 -4 10 3 6 8 10 11 10 2 0 4 -4 4
-10z m24 -50 c-6 -6 -10 -3 -10 10 0 13 4 16 10 10 7 -7 7 -13 0 -20z m-2500
2 c3 -5 -1 -9 -9 -9 -8 0 -12 4 -9 9 3 4 7 8 9 8 2 0 6 -4 9 -8z m556 -32 c0
-5 -2 -10 -4 -10 -3 0 -8 5 -11 10 -3 6 -1 10 4 10 6 0 11 -4 11 -10z m-695
-10 c3 -5 1 -10 -4 -10 -6 0 -11 5 -11 10 0 6 2 10 4 10 3 0 8 -4 11 -10z m20
-20 c-3 -5 -1 -10 6 -10 7 0 10 -3 6 -6 -9 -9 -28 6 -22 17 4 5 8 9 11 9 3 0
2 -4 -1 -10z m1822 -15 c0 -8 -4 -12 -9 -9 -5 3 -6 10 -3 15 9 13 12 11 12 -6z
m-422 -15 c-3 -5 -12 -10 -18 -10 -7 0 -6 4 3 10 19 12 23 12 15 0z m-1188 -6
c-3 -3 -12 -4 -19 -1 -8 3 -5 6 6 6 11 1 17 -2 13 -5z m-227 -18 c0 -2 -7 -7
-16 -10 -8 -3 -12 -2 -9 4 6 10 25 14 25 6z m1057 -12 c-3 -3 -12 -4 -19 -1
-8 3 -5 6 6 6 11 1 17 -2 13 -5z m-989 -29 c-3 -3 -9 2 -12 12 -6 14 -5 15 5
6 7 -7 10 -15 7 -18z m-230 -20 c-3 -3 -9 2 -12 12 -6 14 -5 15 5 6 7 -7 10
-15 7 -18z m2267 5 c-3 -5 -11 -10 -16 -10 -6 0 -7 5 -4 10 3 6 11 10 16 10 6
0 7 -4 4 -10z m105 -16 c0 -8 -19 -13 -24 -6 -3 5 1 9 9 9 8 0 15 -2 15 -3z
m-3816 -22 c3 -5 -1 -9 -9 -9 -8 0 -12 4 -9 9 3 4 7 8 9 8 2 0 6 -4 9 -8z
m4010 -32 c-6 -6 -10 -3 -10 10 0 13 4 16 10 10 7 -7 7 -13 0 -20z m-4046 -5
c-3 -3 -9 2 -12 12 -6 14 -5 15 5 6 7 -7 10 -15 7 -18z m2932 5 c0 -5 -2 -10
-4 -10 -3 0 -8 5 -11 10 -3 6 -1 10 4 10 6 0 11 -4 11 -10z m515 -8 c-3 -3
-11 0 -18 7 -9 10 -8 11 6 5 10 -3 15 -9 12 -12z m-948 -8 c-3 -3 -12 -4 -19
-1 -8 3 -5 6 6 6 11 1 17 -2 13 -5z m-1600 -19 c0 -8 -4 -12 -9 -9 -5 3 -6 10
-3 15 9 13 12 11 12 -6z m3337 -3 c2 -4 -10 -8 -27 -9 -30 -1 -30 -1 -7 7 14
4 26 8 27 9 1 1 4 -3 7 -7z m-533 -35 c-10 -9 -11 -8 -5 6 3 10 9 15 12 12 3
-3 0 -11 -7 -18z m33 -52 c-4 -8 -11 -15 -16 -15 -6 0 -5 6 2 15 7 8 14 15 16
15 2 0 1 -7 -2 -15z m296 -39 c0 -3 -4 -8 -10 -11 -5 -3 -10 -1 -10 4 0 6 5
11 10 11 6 0 10 -2 10 -4z m-2760 -12 c0 -8 -19 -13 -24 -6 -3 5 1 9 9 9 8 0
15 -2 15 -3z m-1743 -86 c-3 -8 -6 -5 -6 6 -1 11 2 17 5 13 3 -3 4 -12 1 -19z
m4354 -35 c13 -16 12 -17 -3 -4 -10 7 -18 15 -18 17 0 8 8 3 21 -13z m294
-101 c-3 -3 -11 0 -18 7 -9 10 -8 11 6 5 10 -3 15 -9 12 -12z m595 -295 c0 -2
-10 -12 -22 -23 l-23 -19 19 23 c18 21 26 27 26 19z m-295 -197 c3 -5 1 -10
-4 -10 -6 0 -11 5 -11 10 0 6 2 10 4 10 3 0 8 -4 11 -10z m443 -165 c-3 -3 -9
2 -12 12 -6 14 -5 15 5 6 7 -7 10 -15 7 -18z m-5380 -120 c0 -14 -4 -27 -8
-30 -3 -2 -5 6 -4 18 1 12 3 25 3 30 2 18 9 5 9 -18z m162 -165 c0 -5 -5 -10
-11 -10 -5 0 -7 5 -4 10 3 6 8 10 11 10 2 0 4 -4 4 -10z m-96 -58 c3 -5 -1 -9
-9 -9 -8 0 -12 4 -9 9 3 4 7 8 9 8 2 0 6 -4 9 -8z m5329 -97 c-3 -9 -8 -14
-10 -11 -3 3 -2 9 2 15 9 16 15 13 8 -4z m192 -26 c11 -16 1 -19 -13 -3 -7 8
-8 14 -3 14 5 0 13 -5 16 -11z m326 -366 c13 -16 12 -17 -3 -4 -10 7 -18 15
-18 17 0 8 8 3 21 -13z m-6798 -23 c3 -11 1 -18 -4 -14 -5 3 -9 12 -9 20 0 20
7 17 13 -6z m192 -40 c-4 -6 -1 -19 6 -28 12 -16 12 -16 -5 0 -16 14 -15 38 0
38 3 0 2 -5 -1 -10z m301 -10 c0 -12 -4 -16 -9 -11 -5 5 -6 14 -3 20 10 15 12
14 12 -9z m-109 -12 c-3 -8 -6 -5 -6 6 -1 11 2 17 5 13 3 -3 4 -12 1 -19z
m111 -103 c-3 -3 -9 2 -12 12 -6 14 -5 15 5 6 7 -7 10 -15 7 -18z m-453 5 c3
-6 -1 -7 -9 -4 -18 7 -21 14 -7 14 6 0 13 -4 16 -10z m6815 6 c0 -3 -4 -8 -10
-11 -5 -3 -10 -1 -10 4 0 6 5 11 10 11 6 0 10 -2 10 -4z m-603 -38 c-3 -8 -6
-5 -6 6 -1 11 2 17 5 13 3 -3 4 -12 1 -19z m-6177 -11 c0 -2 -10 -12 -22 -23
l-23 -19 19 23 c18 21 26 27 26 19z m117 -21 c-3 -8 -3 -17 1 -20 10 -11 11
-37 1 -30 -5 3 -7 9 -4 14 3 5 1 11 -4 15 -10 5 -4 35 6 35 3 0 3 -6 0 -14z
m120 -88 c-3 -8 -6 -5 -6 6 -1 11 2 17 5 13 3 -3 4 -12 1 -19z m413 -2 c0 -2
-8 -10 -17 -17 -16 -13 -17 -12 -4 4 13 16 21 21 21 13z m6116 -64 c-17 -16
-18 -16 -5 5 7 12 15 20 18 17 3 -2 -3 -12 -13 -22z m-6595 -15 c-10 -9 -11
-8 -5 6 3 10 9 15 12 12 3 -3 0 -11 -7 -18z m304 -27 c-3 -5 -12 -10 -18 -10
-7 0 -6 4 3 10 19 12 23 12 15 0z m65 -70 c0 -5 -2 -10 -4 -10 -3 0 -8 5 -11
10 -3 6 -1 10 4 10 6 0 11 -4 11 -10z m-390 -50 c0 -5 -5 -10 -11 -10 -5 0 -7
5 -4 10 3 6 8 10 11 10 2 0 4 -4 4 -10z m-135 -31 c-4 -5 -12 -9 -18 -8 -9 0
-8 2 1 6 6 2 9 10 6 15 -4 7 -2 8 5 4 6 -4 9 -12 6 -17z m420 2 c3 -5 2 -12
-3 -15 -5 -3 -9 1 -9 9 0 17 3 19 12 6z m263 -116 c-3 -3 -9 2 -12 12 -6 14
-5 15 5 6 7 -7 10 -15 7 -18z m-658 -9 c0 -3 -4 -8 -10 -11 -5 -3 -10 -1 -10
4 0 6 5 11 10 11 6 0 10 -2 10 -4z m203 -131 c-3 -9 -8 -14 -10 -11 -3 3 -2 9
2 15 9 16 15 13 8 -4z m6517 -15 c0 -5 -5 -10 -11 -10 -5 0 -7 5 -4 10 3 6 8
10 11 10 2 0 4 -4 4 -10z m-6115 -18 c-3 -3 -11 0 -18 7 -9 10 -8 11 6 5 10
-3 15 -9 12 -12z m-125 -182 c0 -5 -2 -10 -4 -10 -3 0 -8 5 -11 10 -3 6 -1 10
4 10 6 0 11 -4 11 -10z m-467 -25 c-3 -9 -8 -14 -10 -11 -3 3 -2 9 2 15 9 16
15 13 8 -4z m307 -54 c0 -5 -7 -12 -16 -15 -14 -5 -15 -4 -4 9 14 17 20 19 20
6z m-293 -43 c-3 -8 -6 -5 -6 6 -1 11 2 17 5 13 3 -3 4 -12 1 -19z m183 -98
c6 -11 8 -20 6 -20 -3 0 -10 9 -16 20 -6 11 -8 20 -6 20 3 0 10 -9 16 -20z
m177 -122 c-3 -8 -6 -5 -6 6 -1 11 2 17 5 13 3 -3 4 -12 1 -19z m470 -23 c0
-8 -4 -12 -9 -9 -5 3 -6 10 -3 15 9 13 12 11 12 -6z m10 -47 c-3 -8 -6 -5 -6
6 -1 11 2 17 5 13 3 -3 4 -12 1 -19z m-422 -7 c3 -5 2 -12 -3 -15 -5 -3 -9 1
-9 9 0 17 3 19 12 6z m405 -1175 c0 -3 -4 -8 -10 -11 -5 -3 -10 -1 -10 4 0 6
5 11 10 11 6 0 10 -2 10 -4z m-23 -331 c0 -8 -4 -12 -9 -9 -5 3 -6 10 -3 15 9
13 12 11 12 -6z m-227 -20 c0 -7 -30 -13 -34 -7 -3 4 4 9 15 9 10 1 19 0 19
-2z m641 -302 c12 -16 12 -17 -2 -6 -9 7 -20 9 -24 5 -5 -4 -5 -1 -1 6 9 16
11 15 27 -5z m589 13 c0 -2 -7 -7 -16 -10 -8 -3 -12 -2 -9 4 6 10 25 14 25 6z
m-899 -73 c13 -16 12 -17 -3 -4 -10 7 -18 15 -18 17 0 8 8 3 21 -13z m1763
-59 c3 -8 2 -12 -4 -9 -6 3 -10 10 -10 16 0 14 7 11 14 -7z m-384 -22 c0 -5
-7 -9 -15 -9 -8 0 -15 4 -15 9 0 4 7 8 15 8 8 0 15 -4 15 -8z m-796 -18 c3 -8
2 -12 -4 -9 -6 3 -10 10 -10 16 0 14 7 11 14 -7z m980 -39 c-7 -16 -24 -21
-24 -6 0 8 7 13 27 20 1 1 0 -6 -3 -14z m306 -20 c0 -8 -4 -15 -10 -15 -5 0
-7 7 -4 15 4 8 8 15 10 15 2 0 4 -7 4 -15z m-383 -11 c-3 -3 -12 -4 -19 -1 -8
3 -5 6 6 6 11 1 17 -2 13 -5z m1694 -107 c-10 -9 -11 -8 -5 6 3 10 9 15 12 12
3 -3 0 -11 -7 -18z m-324 -9 c-3 -8 -6 -5 -6 6 -1 11 2 17 5 13 3 -3 4 -12 1
-19z m-142 -6 c-3 -3 -11 0 -18 7 -9 10 -8 11 6 5 10 -3 15 -9 12 -12z m245
-6 c0 -2 -8 -10 -17 -17 -16 -13 -17 -12 -4 4 13 16 21 21 21 13z m-445 -36
c3 -6 -1 -7 -9 -4 -18 7 -21 14 -7 14 6 0 13 -4 16 -10z m108 3 c-7 -2 -19 -2
-25 0 -7 3 -2 5 12 5 14 0 19 -2 13 -5z m157 3 c0 -3 -4 -8 -10 -11 -5 -3 -10
-1 -10 4 0 6 5 11 10 11 6 0 10 -2 10 -4z m-433 -19 c0 -8 -6 -14 -14 -14 -9
0 -10 4 -2 14 6 7 12 13 14 13 1 0 2 -6 2 -13z m353 -7 c0 -5 -2 -10 -4 -10
-3 0 -8 5 -11 10 -3 6 -1 10 4 10 6 0 11 -4 11 -10z m951 -18 c-7 -2 -18 1
-23 6 -8 8 -4 9 13 5 13 -4 18 -8 10 -11z m-1268 -7 c-3 -9 -8 -14 -10 -11 -3
3 -2 9 2 15 9 16 15 13 8 -4z m-290 -8 c3 -8 2 -20 -3 -26 -5 -9 -7 -4 -7 13
0 29 2 32 10 13z m138 -60 c-10 -9 -11 -8 -5 6 3 10 9 15 12 12 3 -3 0 -11 -7
-18z m246 7 c-3 -3 -12 -4 -19 -1 -8 3 -5 6 6 6 11 1 17 -2 13 -5z m679 -19
c-1 -8 -6 -18 -11 -22 -4 -4 -5 -2 -1 5 4 7 2 12 -6 12 -9 0 -9 3 2 10 19 12
19 13 16 -5z m251 9 c-3 -3 -12 -4 -19 -1 -8 3 -5 6 6 6 11 1 17 -2 13 -5z
m-740 -59 c0 -8 -4 -12 -9 -9 -5 3 -6 10 -3 15 9 13 12 11 12 -6z m618 -14
c-3 -6 -11 -11 -16 -11 -5 0 -4 6 3 14 14 16 24 13 13 -3z m-732 -16 c-3 -9
-8 -14 -10 -11 -3 3 -2 9 2 15 9 16 15 13 8 -4z m442 -5 c3 -5 1 -10 -4 -10
-6 0 -11 5 -11 10 0 6 2 10 4 10 3 0 8 -4 11 -10z m-855 -6 c0 -8 -19 -13 -24
-6 -3 5 1 9 9 9 8 0 15 -2 15 -3z m34 -40 c3 -8 2 -12 -4 -9 -6 3 -10 10 -10
16 0 14 7 11 14 -7z m641 -2 c-3 -3 -11 0 -18 7 -9 10 -8 11 6 5 10 -3 15 -9
12 -12z m-685 -22 c0 -5 -5 -10 -11 -10 -5 0 -7 5 -4 10 3 6 8 10 11 10 2 0 4
-4 4 -10z m343 -21 c-6 -6 -15 -3 -24 8 -13 16 -12 17 4 4 15 -12 17 -11 18 5
0 12 2 14 6 6 3 -8 1 -18 -4 -23z m-163 17 c0 -2 -7 -7 -16 -10 -8 -3 -12 -2
-9 4 6 10 25 14 25 6z m-125 -24 c-3 -3 -11 0 -18 7 -9 10 -8 11 6 5 10 -3 15
-9 12 -12z m675 -2 c0 -5 -5 -10 -11 -10 -5 0 -7 5 -4 10 3 6 8 10 11 10 2 0
4 -4 4 -10z m-500 -4 c0 -3 -4 -8 -10 -11 -5 -3 -10 -1 -10 4 0 6 5 11 10 11
6 0 10 -2 10 -4z m280 -20 c0 -3 -4 -8 -10 -11 -5 -3 -10 -1 -10 4 0 6 5 11
10 11 6 0 10 -2 10 -4z m-607 -31 c-3 -9 -8 -14 -10 -11 -3 3 -2 9 2 15 9 16
15 13 8 -4z m112 -5 c3 -5 1 -10 -4 -10 -6 0 -11 5 -11 10 0 6 2 10 4 10 3 0
8 -4 11 -10z m755 -5 c11 -13 10 -14 -4 -9 -9 3 -16 10 -16 15 0 13 6 11 20
-6z m-449 -22 c13 -17 13 -17 -6 -3 -11 8 -22 16 -24 17 -2 2 0 3 6 3 6 0 17
-8 24 -17z m-61 -9 c0 -2 -7 -4 -15 -4 -8 0 -15 4 -15 10 0 5 7 7 15 4 8 -4
15 -8 15 -10z m195 -44 c3 -6 -1 -7 -9 -4 -18 7 -21 14 -7 14 6 0 13 -4 16
-10z m-538 -15 c0 -8 -4 -12 -9 -9 -5 3 -6 10 -3 15 9 13 12 11 12 -6z m793
-5 c0 -5 -7 -7 -15 -4 -8 4 -15 8 -15 10 0 2 7 4 15 4 8 0 15 -4 15 -10z m90
-4 c0 -2 -7 -7 -16 -10 -8 -3 -12 -2 -9 4 6 10 25 14 25 6z m-665 -25 c3 -5 2
-12 -3 -15 -5 -3 -9 1 -9 9 0 17 3 19 12 6z m169 -6 c3 -9 0 -15 -9 -15 -9 0
-12 6 -9 15 4 8 7 15 9 15 2 0 5 -7 9 -15z m406 11 c0 -2 -8 -10 -17 -17 -16
-13 -17 -12 -4 4 13 16 21 21 21 13z m-204 -54 c-17 -16 -18 -16 -5 5 7 12 15
20 18 17 3 -2 -3 -12 -13 -22z m569 0 c-3 -3 -11 0 -18 7 -9 10 -8 11 6 5 10
-3 15 -9 12 -12z m-235 -12 c0 -5 -7 -7 -15 -4 -8 4 -15 8 -15 10 0 2 7 4 15
4 8 0 15 -4 15 -10z m-373 -6 c-3 -3 -12 -4 -19 -1 -8 3 -5 6 6 6 11 1 17 -2
13 -5z m-260 -19 c0 -8 -4 -12 -9 -9 -5 3 -6 10 -3 15 9 13 12 11 12 -6z m43
-1 c0 -8 -19 -13 -24 -6 -3 5 1 9 9 9 8 0 15 -2 15 -3z m23 -9 c-3 -9 -8 -14
-10 -11 -3 3 -2 9 2 15 9 16 15 13 8 -4z m-223 -4 c0 -6 -4 -12 -8 -15 -5 -3
-9 1 -9 9 0 8 4 15 9 15 4 0 8 -4 8 -9z m110 -15 c0 -2 -8 -10 -17 -17 -16
-13 -17 -12 -4 4 13 16 21 21 21 13z m221 -29 c-10 -9 -11 -8 -5 6 3 10 9 15
12 12 3 -3 0 -11 -7 -18z"/>
<path d="M4033 6921 c-18 -11 -35 -31 -38 -43 -3 -13 -6 -108 -8 -213 l-2
-190 -195 -5 c-107 -3 -203 -9 -213 -14 -39 -19 -47 -57 -47 -230 l0 -166 29
-32 29 -33 198 -5 197 -5 3 -203 c2 -149 6 -208 16 -219 28 -34 74 -43 225
-43 121 0 154 3 183 18 56 27 60 45 60 260 l0 192 191 0 191 0 34 34 34 34 0
166 c0 182 -7 212 -55 234 -17 8 -89 12 -210 12 l-184 0 -3 205 -3 205 -28 27
-27 28 -173 3 c-157 2 -175 1 -204 -17z"/>
<path d="M5279 6447 c-47 -36 -51 -97 -10 -138 l30 -30 505 3 505 3 23 23 c32
31 31 92 -1 126 l-24 26 -506 0 c-382 -1 -510 -4 -522 -13z"/>
<path d="M5269 6071 c-31 -31 -36 -64 -18 -104 21 -47 30 -48 373 -48 l321 1
28 30 c37 41 36 83 -2 121 l-29 29 -322 0 -322 0 -29 -29z"/>
<path d="M3575 5098 c-52 -28 -63 -101 -20 -143 l24 -25 735 0 735 0 26 23
c44 37 35 116 -15 142 -25 13 -130 15 -747 15 -500 -1 -724 -4 -738 -12z"/>
<path d="M3555 4665 c-28 -27 -34 -88 -12 -116 29 -38 41 -39 607 -39 l552 0
29 29 c38 38 40 91 4 126 l-24 25 -566 0 -566 0 -24 -25z"/>
<path d="M3578 4255 c-53 -30 -64 -95 -24 -142 l24 -28 642 0 642 0 24 28 c32
37 32 87 0 124 l-24 28 -629 2 c-541 2 -632 0 -655 -12z"/>
<path d="M3555 3715 c-19 -18 -25 -35 -25 -65 0 -30 6 -47 25 -65 l24 -25 561
0 562 0 29 29 c31 31 37 67 17 104 -25 47 -12 46 -606 47 l-563 0 -24 -25z"/>
<path d="M6479 5745 c-70 -26 -120 -56 -113 -68 4 -7 4 -9 -1 -5 -4 4 -28 -9
-53 -30 -25 -20 -42 -31 -38 -23 7 11 -4 13 -63 9 -40 -2 -75 -8 -79 -13 -4
-6 -18 -11 -32 -13 -34 -5 -112 -51 -105 -62 4 -6 -1 -7 -11 -3 -12 4 -15 3
-10 -5 4 -7 1 -12 -7 -12 -19 0 -49 -34 -40 -46 5 -5 4 -6 -1 -2 -17 14 -103
-93 -90 -113 4 -7 3 -9 -4 -5 -6 4 -16 -13 -26 -41 -21 -67 -31 -127 -19 -120
5 3 10 0 10 -8 0 -8 -4 -12 -9 -9 -4 3 -8 0 -8 -5 0 -6 18 -11 40 -11 47 0 55
-13 46 -65 -6 -31 -11 -35 -36 -35 -17 0 -30 -5 -30 -10 0 -6 -10 -8 -23 -5
-79 20 -228 -109 -298 -260 -47 -100 -51 -196 -14 -311 l28 -85 -52 -51 c-74
-73 -97 -105 -120 -173 -28 -84 -35 -160 -21 -251 17 -114 102 -286 132 -268
6 4 8 3 5 -3 -9 -15 38 -55 128 -110 l80 -49 7 -84 c9 -103 36 -210 54 -217 8
-3 11 -9 8 -14 -3 -5 2 -12 10 -15 9 -3 14 -9 11 -13 -7 -13 48 -66 107 -104
63 -40 134 -67 178 -67 31 0 32 -1 83 -70 39 -54 109 -103 147 -104 16 -1 26
-4 24 -8 -3 -4 4 -7 13 -7 10 0 42 -5 72 -11 60 -13 157 3 144 23 -3 6 -1 7 5
3 16 -10 74 22 66 36 -4 7 -3 8 5 4 6 -4 19 -2 27 5 12 10 12 14 2 22 -10 7
-9 8 3 4 18 -6 66 39 90 83 11 20 15 132 17 568 l3 543 -218 -6 c-120 -3 -229
-8 -241 -11 -15 -3 -21 -1 -17 6 3 5 1 10 -5 10 -6 0 -18 7 -27 15 -8 8 -20
12 -26 8 -7 -3 -8 -2 -4 2 10 12 -133 156 -147 148 -6 -3 -8 -3 -4 2 11 11
-12 36 -25 28 -5 -3 -7 -1 -4 4 4 6 -18 34 -48 62 -49 46 -58 51 -100 51 -25
0 -62 7 -83 17 -20 9 -40 15 -44 15 -5 -1 -7 1 -6 6 1 4 -6 21 -15 39 -21 39
-22 112 -3 156 34 81 135 122 206 84 19 -10 45 -29 56 -42 12 -13 24 -22 26
-20 2 2 4 -4 5 -13 7 -108 12 -119 100 -205 47 -45 89 -81 95 -79 5 1 7 -2 4
-7 -8 -12 20 -34 33 -26 6 3 8 0 5 -8 -3 -9 10 -27 32 -46 l38 -31 206 1 205
0 3 130 3 129 -53 2 c-29 1 -72 2 -96 2 -23 1 -42 4 -42 9 0 4 -25 7 -56 7
-34 0 -53 4 -49 10 3 6 0 10 -7 11 -7 0 -33 25 -58 54 -25 29 -51 52 -58 49
-7 -2 -10 1 -7 6 4 6 -4 14 -17 19 -13 4 -23 12 -23 17 0 5 -4 8 -8 6 -5 -1
-6 2 -2 7 3 6 -2 22 -11 35 -13 21 -16 53 -15 195 1 163 1 171 -23 205 -13 19
-27 32 -31 28 -5 -4 -5 -2 -2 5 4 6 2 24 -4 40 -15 40 -3 88 33 129 72 82 170
83 250 2 32 -32 33 -35 27 -98 -7 -80 -12 -92 -56 -126 l-34 -26 3 -140 3
-139 71 -70 c66 -64 75 -69 115 -69 24 0 68 -3 97 -7 l53 -6 -4 526 c-5 575
-3 565 -63 587 -35 14 -132 11 -175 -5z m-676 -1637 c28 -15 76 -67 88 -96 5
-13 13 -20 19 -17 5 3 8 0 5 -7 -6 -16 1 -26 45 -62 101 -83 200 -181 209
-208 6 -17 11 -77 11 -134 0 -109 5 -138 24 -127 6 3 8 3 4 -2 -4 -4 3 -21 17
-36 25 -31 41 -103 31 -142 -15 -61 -81 -107 -151 -107 -62 0 -127 45 -141 97
-3 13 -10 21 -14 18 -15 -9 20 120 40 147 17 23 20 43 20 127 0 92 -2 102 -26
130 -14 17 -31 28 -36 24 -7 -4 -8 -1 -3 6 5 9 -12 32 -48 67 l-56 53 -43 -19
c-58 -26 -93 -25 -145 5 -73 44 -97 116 -62 192 12 26 21 51 21 56 -1 4 1 6 6
5 4 0 27 8 52 20 50 24 100 28 133 10z m721 -414 c19 -9 40 -27 47 -40 6 -13
15 -22 18 -20 3 3 7 -19 9 -48 2 -44 -1 -57 -25 -88 -33 -43 -85 -63 -139 -54
-22 4 -47 7 -56 8 -9 1 -16 5 -15 8 1 3 -7 18 -18 34 -21 31 -24 111 -5 130 5
5 10 17 10 26 0 21 68 59 107 60 18 0 48 -7 67 -16z"/>
<path d="M5696 4095 c-116 -41 -144 -171 -54 -247 47 -41 89 -45 150 -17 l50
23 89 -91 89 -92 0 -110 c0 -101 -2 -113 -25 -147 -19 -27 -25 -50 -25 -88 0
-69 26 -109 84 -131 59 -23 107 -14 154 30 34 31 37 37 36 87 -2 58 -19 101
-53 132 -19 17 -21 30 -21 135 0 144 -2 147 -145 273 -70 61 -122 116 -151
161 -31 48 -55 72 -79 83 -42 17 -49 17 -99 -1z"/>
<path d="M6403 3681 c-99 -62 -77 -213 33 -228 74 -10 154 51 154 117 0 12 -6
33 -14 48 -38 73 -114 100 -173 63z"/>
<path d="M6990 5738 c-19 -14 -34 -32 -34 -41 1 -9 -2 -15 -6 -12 -17 11 -20
-37 -20 -316 l0 -289 118 0 c132 0 146 6 154 67 4 30 1 34 -29 45 -18 7 -33
16 -33 21 0 4 -6 5 -12 1 -7 -4 -10 -4 -6 1 4 4 -1 20 -12 35 -11 16 -20 34
-20 42 0 10 -3 10 -11 -2 -8 -12 -9 -11 -4 6 3 12 1 40 -4 63 -5 26 -5 43 1
47 5 3 7 11 5 17 -3 10 10 30 41 63 7 8 11 18 8 23 -7 11 46 23 104 23 52 1
100 -5 94 -11 -2 -2 1 -10 7 -18 9 -10 15 -11 28 -1 13 10 14 10 4 -1 -8 -10
-7 -23 8 -55 34 -75 22 -153 -31 -205 -33 -32 -38 -43 -43 -98 -6 -77 -30
-119 -88 -158 -42 -28 -50 -30 -162 -34 l-117 -3 0 -564 1 -564 323 0 323 0
46 49 c41 44 46 54 52 115 5 48 4 75 -5 91 -7 14 -16 23 -19 20 -4 -2 -8 23
-9 55 -2 44 2 68 17 97 31 57 42 69 84 82 46 15 115 1 143 -30 9 -10 21 -16
26 -13 4 3 7 2 6 -3 -1 -4 6 -22 15 -40 24 -45 22 -124 -4 -157 -11 -14 -17
-26 -12 -26 4 0 -10 -12 -32 -25 -36 -22 -41 -31 -53 -87 -7 -35 -14 -71 -15
-80 -1 -9 -4 -15 -8 -12 -4 2 -19 -15 -35 -37 -15 -22 -51 -61 -78 -87 -28
-25 -44 -42 -36 -37 8 4 12 4 7 0 -15 -17 -44 -19 -387 -25 -190 -3 -347 -7
-349 -8 -2 -1 0 -19 4 -39 4 -21 7 -65 6 -98 -1 -43 2 -56 9 -45 6 10 10 11
10 3 0 -10 31 -13 119 -13 74 0 122 -4 126 -11 4 -6 14 -8 23 -4 9 3 13 3 10
-1 -9 -8 70 -70 107 -84 15 -6 48 -10 75 -10 27 0 52 -4 55 -10 3 -5 12 -10
18 -10 7 0 6 4 -3 11 -10 7 -11 9 -2 7 8 -2 13 -7 12 -12 -1 -4 9 -20 23 -34
26 -29 49 -84 42 -105 -2 -7 -6 -24 -9 -39 -8 -34 -50 -84 -87 -104 -28 -14
-116 -28 -105 -16 7 6 -54 36 -67 33 -5 -1 -6 3 -3 7 6 11 -28 45 -36 36 -3
-3 -6 1 -5 8 0 7 -1 38 -2 68 -2 49 -6 58 -34 80 -17 14 -27 19 -23 11 6 -9 5
-12 -2 -7 -5 3 -13 0 -16 -6 -3 -7 -3 -3 0 9 8 33 -22 43 -134 43 l-100 0 -4
-62 c-8 -102 -9 -294 -2 -322 3 -14 10 -23 15 -20 5 3 6 -2 3 -11 -13 -34 106
-145 141 -131 9 3 13 2 10 -4 -8 -14 61 -25 143 -23 91 2 282 59 282 85 0 4 3
7 8 7 19 -3 33 2 27 11 -3 5 0 7 8 4 18 -7 41 21 31 38 -6 10 -3 9 9 -1 16
-13 22 -8 17 14 -1 5 2 7 5 3 11 -11 77 43 71 58 -3 8 0 11 8 8 15 -6 102 120
117 169 20 65 28 162 18 231 -11 79 -9 82 58 92 23 3 44 13 47 21 4 9 13 13
21 9 25 -9 100 39 88 57 -3 6 -1 7 5 3 13 -8 35 28 24 39 -4 3 -1 5 7 3 23 -5
43 69 38 142 -6 72 -15 103 -28 94 -5 -3 -6 2 -3 10 3 8 -2 28 -10 45 -15 29
-15 31 4 41 11 6 18 15 15 21 -4 5 -1 8 7 7 7 -2 12 3 10 10 -1 8 2 11 7 8 5
-4 19 7 31 24 12 16 18 30 13 30 -4 0 0 5 10 11 9 5 17 15 17 20 0 6 -5 7 -12
3 -7 -4 -8 -3 -4 5 4 6 11 9 15 6 10 -5 36 59 50 125 19 82 10 257 -11 244 -6
-4 -7 2 -3 16 8 25 -38 127 -80 175 -15 17 -23 23 -19 15 4 -9 3 -12 -2 -7 -5
5 -10 13 -10 18 -1 5 -2 13 -3 18 -1 12 -133 111 -147 111 -22 0 -23 29 -7
105 14 63 15 88 6 140 -15 88 -57 171 -114 228 -61 61 -122 88 -205 91 l-66 2
-22 56 c-37 90 -71 140 -129 187 -106 86 -232 139 -352 148 -62 4 -74 2 -105
-19z m197 -600 c-3 -8 -6 -5 -6 6 -1 11 2 17 5 13 3 -3 4 -12 1 -19z m591
-163 c26 -14 44 -25 40 -25 -4 0 1 -15 12 -32 24 -40 26 -117 5 -158 -20 -39
-75 -80 -117 -86 -18 -3 -51 -1 -73 4 -37 8 -44 5 -85 -26 -25 -18 -45 -39
-45 -45 -1 -7 -6 -11 -12 -10 -7 2 -37 -20 -67 -48 l-56 -51 7 -106 c5 -88 10
-112 30 -140 31 -46 32 -121 1 -170 -35 -57 -120 -86 -184 -62 -38 15 -101 74
-96 90 3 7 1 10 -4 7 -5 -3 -7 21 -4 57 5 62 28 112 56 123 7 3 11 9 8 14 -3
5 0 8 8 7 10 -2 14 23 19 107 4 61 7 118 8 127 0 9 50 61 111 114 60 53 107
101 104 106 -3 5 -2 7 3 6 4 -2 24 6 43 18 29 17 38 31 48 70 7 27 13 54 14
61 1 7 6 9 11 6 7 -4 8 1 3 13 -4 10 -4 16 -1 12 4 -3 23 5 42 18 48 32 109
32 171 -1z m162 -359 c0 -3 -4 -8 -10 -11 -5 -3 -10 -1 -10 4 0 6 5 11 10 11
6 0 10 -2 10 -4z m-667 -773 c-7 -2 -19 -2 -25 0 -7 3 -2 5 12 5 14 0 19 -2
13 -5z m627 -353 c0 -5 -8 -10 -17 -10 -15 0 -16 2 -3 10 19 12 20 12 20 0z
m-150 -460 c0 -5 -5 -10 -11 -10 -5 0 -7 5 -4 10 3 6 8 10 11 10 2 0 4 -4 4
-10z m-710 -192 c0 -6 -6 -5 -15 2 -8 7 -15 14 -15 16 0 2 7 1 15 -2 8 -4 15
-11 15 -16z"/>
<path d="M7622 4970 c-39 -24 -68 -69 -76 -120 -4 -26 -14 -43 -33 -55 -34
-22 -207 -172 -245 -212 -25 -26 -27 -36 -34 -150 -7 -119 -7 -122 -36 -143
-86 -63 -73 -196 23 -248 132 -70 267 80 183 204 -24 34 -27 51 -32 147 -6
126 -14 112 130 228 l96 79 56 -12 c51 -10 60 -9 102 13 83 43 108 132 59 214
-41 71 -126 95 -193 55z"/>
</g>
</svg>
